<svg
  xmlns="http://www.w3.org/2000/svg"
  width="490"
  height="366"
  viewBox="0 0 490 366"
>
  <g fill="none" fill-rule="evenodd" transform="translate(1 1.5)">
    <g
      stroke="#C13F21"
      stroke-dasharray="35 7 10 80"
      stroke-width="2"
      transform="translate(84 21)"
    >
      <path
        d="M160,290 C231.797017,290 290,231.797017 290,160 C290,88.2029825 231.797017,30 160,30 C88.2029825,30 30,88.2029825 30,160 C30,231.797017 88.2029825,290 160,290 Z"
      />
      <path
        d="M160,290 C231.797017,290 290,231.797017 290,160 C290,88.2029825 231.797017,30 160,30 C88.2029825,30 30,88.2029825 30,160 C30,231.797017 88.2029825,290 160,290 Z"
        opacity=".278"
        transform="rotate(-15 160 160)"
      />
    </g>
    <g stroke="#659CC8" stroke-width="2" transform="translate(63)">
      <path
        stroke-dasharray="2 45 161"
        d="M181,362 C280.96354,362 362,280.96354 362,181 C362,81.0364603 280.96354,0 181,0 C81.0364603,0 0,81.0364603 0,181 C0,280.96354 81.0364603,362 181,362 Z"
      />
      <path
        stroke-dasharray="76 4 70"
        d="M16.997,104.524 C-25.239,195.1 13.948,302.766 104.524,345.003 C195.1,387.239 302.766,348.052 345.003,257.476 C387.239,166.9 348.052,59.234 257.476,16.997 C166.9,-25.239 59.234,13.948 16.997,104.524 Z"
        opacity=".191"
      />
    </g>
    <g stroke="#78AF9F" stroke-width="4" transform="translate(85 22)">
      <path
        stroke-dasharray="76 4 70"
        d="M159,318 C246.813275,318 318,246.813275 318,159 C318,71.1867248 246.813275,0 159,0 C71.1867248,0 0,71.1867248 0,159 C0,246.813275 71.1867248,318 159,318 Z"
      />
      <path
        stroke-dasharray="46 2 12"
        d="M159,318 C246.813275,318 318,246.813275 318,159 C318,71.1867248 246.813275,0 159,0 C71.1867248,0 0,71.1867248 0,159 C0,246.813275 71.1867248,318 159,318 Z"
        opacity=".278"
      />
    </g>
    <g stroke="#D36E2D" stroke-width="4" transform="translate(102 39)">
      <path
        stroke-dasharray="51 4 10 80"
        d="M142,283 C219.87215,283 283,219.87215 283,142 C283,64.1278503 219.87215,1 142,1 C64.1278503,1 1,64.1278503 1,142 C1,219.87215 64.1278503,283 142,283 Z"
      />
      <path
        stroke-dasharray="140 4 10 80"
        d="M210.346,265.299 C278.442,227.553 303.046,141.75 265.299,73.654 C227.553,5.558 141.75,-19.046 73.654,18.701 C5.558,56.447 -19.046,142.25 18.701,210.346 C56.447,278.442 142.25,303.046 210.346,265.299 Z"
        opacity=".441"
      />
    </g>
    <g stroke="#659CC8" stroke-width="2" transform="translate(0 66.5)">
      <path
        stroke-dasharray="31 7 8"
        d="M57.933,0.562 C36.441,34.543 24,74.82 24,118 C24,153.607 32.46,187.239 47.478,216.994 M434.015,228.95 C453.075,196.377 464,158.464 464,118 C464,75.1 451.72,35.066 430.484,1.225"
        opacity=".164"
      />
      <path
        stroke-dasharray="3 8 34"
        d="M466.113,194.948 C474.463,170.84 479,144.95 479,118 C479,96 475.977,74.707 470.324,54.512 M26.826,28.06 C15.34,55.764 9,86.141 9,118 C9,140.158 12.067,161.599 17.798,181.923"
        opacity=".12"
      />
      <path
        stroke-dasharray="2 6 8"
        d="M4.892,69.144 C1.63023737,85.2245509 -0.00864958402,101.59198 -5.16253706e-14,118 C-5.16253706e-14,131.187 1.046,144.13 3.06,156.749 M487.17,138.262 C487.72,131.581 488,124.823 488,118 C488,105.102 487,92.438 485.071,80.08"
        opacity=".08"
      />
    </g>
    <path
      stroke="#DDA032"
      stroke-dasharray="56 2 4"
      stroke-width="8"
      d="M59.733,270.287994 C125.89,320.141994 219.935,306.923994 269.788,240.767994 C319.642,174.609994 306.424,80.5649939 240.268,30.7119939 C174.11,-19.1420061 80.065,-5.92400607 30.212,60.2319939 C-19.642,126.389994 -6.424,220.434994 59.732,270.287994 L59.733,270.287994 Z"
      opacity=".688"
      transform="translate(94 30.5)"
    />
  </g>
</svg>
